# xmcd
#
# Track frame offsets:
#	150
#	12718
#	22904
#	35647
#	46381
#	59548
#	71929
#	82351
#	94700
#	104513
#	117826
#	129197
#	140818
#	153515
#
# Disc length: 2218 seconds
#
# Revision: 1
# Processed by: cddbd v1.5.1PL0 Copyright (c) Steve Scherf et al.
# Submitted via: audiograbber 1.83.01
#
DISCID=cd08a80e
DTITLE=Various Artist - Legends Of Country
DYEAR=2003
DGENRE=Country
TTITLE0=Johnny Cash - Folsom Prison Blues
TTITLE1=Dolly Parton - Release Me
TTITLE2=Lynn Anderson - Rose Garden
TTITLE3=Patsy Cline - I Can See An Angel Walkin'
TTITLE4=Freddy Fender - Wasted Days and Wasted Nights
TTITLE5=Kenny Rogers - Ruben James
TTITLE6=Buck Owens - After The Dance
TTITLE7=Hank Williams - Honky Tonkin' (1984)
TTITLE8=Merle Haggard - Mama Tried
TTITLE9=Don Williams - Where Do We Go From Here
TTITLE10=Willie Nelson - Touch Me
TTITLE11=Tennessee Erne Ford - The Shotgun Boogie
TTITLE12=Kitty Welis - Making Believe
TTITLE13=Glen Campbell - Rhinestone Cowboy
EXTD=
EXTT0=
EXTT1=
EXTT2=
EXTT3=
EXTT4=
EXTT5=
EXTT6=
EXTT7=
EXTT8=
EXTT9=
EXTT10=
EXTT11=
EXTT12=
EXTT13=
PLAYORDER=
